STARTFONT 2.1
COMMENT  
COMMENT  Copyright (c) 1984, 1987 Adobe Systems Incorporated. All Rights Reserved. Copyright (c) 1988, 1991 Digital Equipment Corporation. All Rights Reserved.
COMMENT  
COMMENT  WARNING:  This bdf file was generated from a font server using
COMMENT  fstobdf.  The resulting font is subject to the same copyright,
COMMENT  license, and trademark restrictions as the original font.  The
COMMENT  authors and distributors of fstobdf disclaim all liability for
COMMENT  misuse of the program or its output.
COMMENT  
FONT -Adobe-Helvetica-Medium-R-Normal--8-80-75-75-P-46-ISO8859-1
SIZE 8 75 75
FONTBOUNDINGBOX 9 11 0 -2
STARTPROPERTIES 32
FOUNDRY "Adobe"
FAMILY_NAME "Helvetica"
WEIGHT_NAME "Medium"
SLANT "R"
SETWIDTH_NAME "Normal"
ADD_STYLE_NAME ""
PIXEL_SIZE 8
POINT_SIZE 80
RESOLUTION_X 75
RESOLUTION_Y 75
SPACING "P"
AVERAGE_WIDTH 46
CHARSET_REGISTRY "ISO8859"
CHARSET_ENCODING "1"
CAP_HEIGHT 6
X_HEIGHT 5
FACE_NAME "Helvetica"
COPYRIGHT "Copyright (c) 1984, 1987 Adobe Systems Incorporated. All Rights Reserved. Copyright (c) 1988, 1991 Digital Equipment Corporation. All Rights Reserved."
NOTICE "Helvetica is a trademark of Linotype-Hell AG and/or its subsidiaries.  "
_DEC_DEVICE_FONTNAMES "PS=Helvetica"
_DEC_PRODUCTINFO "DECwindows Fonts V2.2-1, 04-Dec-1991"
RELATIVE_SETWIDTH 50
RELATIVE_WEIGHT 50
CHARSET_COLLECTIONS "ASCII ISO8859-1 ADOBE-STANDARD"
FULL_NAME "Helvetica"
FONT "-Adobe-Helvetica-Medium-R-Normal--8-80-75-75-P-46-ISO8859-1"
WEIGHT 10
RESOLUTION 103
QUAD_WIDTH 5
DEFAULT_CHAR 32
FONT_ASCENT 8
FONT_DESCENT 2
ENDPROPERTIES
CHARS 191
STARTCHAR space
ENCODING 32
SWIDTH 240 0
DWIDTH 2 0
BBX 1 1 0 0
BITMAP
00
ENDCHAR
STARTCHAR exclam
ENCODING 33
SWIDTH 240 0
DWIDTH 2 0
BBX 1 6 1 0
BITMAP
80
80
80
80
00
80
ENDCHAR
STARTCHAR quotedbl
ENCODING 34
SWIDTH 360 0
DWIDTH 3 0
BBX 3 3 1 3
BITMAP
a0
a0
a0
ENDCHAR
STARTCHAR numbersign
ENCODING 35
SWIDTH 600 0
DWIDTH 5 0
BBX 5 5 0 0
BITMAP
50
f8
50
f8
50
ENDCHAR
STARTCHAR dollar
ENCODING 36
SWIDTH 600 0
DWIDTH 5 0
BBX 4 7 1 -1
BITMAP
20
70
80
60
10
e0
40
ENDCHAR
STARTCHAR percent
ENCODING 37
SWIDTH 840 0
DWIDTH 7 0
BBX 6 6 1 0
BITMAP
e8
a8
d0
2c
54
5c
ENDCHAR
STARTCHAR ampersand
ENCODING 38
SWIDTH 720 0
DWIDTH 6 0
BBX 5 6 1 0
BITMAP
40
a0
48
a8
b0
58
ENDCHAR
STARTCHAR apostrophe
ENCODING 39
SWIDTH 240 0
DWIDTH 2 0
BBX 1 3 1 3
BITMAP
80
80
80
ENDCHAR
STARTCHAR parenleft
ENCODING 40
SWIDTH 360 0
DWIDTH 3 0
BBX 2 7 1 -1
BITMAP
40
80
80
80
80
80
40
ENDCHAR
STARTCHAR parenright
ENCODING 41
SWIDTH 360 0
DWIDTH 3 0
BBX 2 7 1 -1
BITMAP
80
40
40
40
40
40
80
ENDCHAR
STARTCHAR asterisk
ENCODING 42
SWIDTH 360 0
DWIDTH 3 0
BBX 3 3 1 2
BITMAP
40
e0
40
ENDCHAR
STARTCHAR plus
ENCODING 43
SWIDTH 600 0
DWIDTH 5 0
BBX 5 5 1 0
BITMAP
20
20
f8
20
20
ENDCHAR
STARTCHAR comma
ENCODING 44
SWIDTH 240 0
DWIDTH 2 0
BBX 2 3 0 -2
BITMAP
40
40
80
ENDCHAR
STARTCHAR minus
ENCODING 45
SWIDTH 720 0
DWIDTH 6 0
BBX 4 1 2 2
BITMAP
f0
ENDCHAR
STARTCHAR period
ENCODING 46
SWIDTH 240 0
DWIDTH 2 0
BBX 1 1 1 0
BITMAP
80
ENDCHAR
STARTCHAR slash
ENCODING 47
SWIDTH 240 0
DWIDTH 2 0
BBX 2 7 1 -1
BITMAP
40
40
40
80
80
80
80
ENDCHAR
STARTCHAR 0
ENCODING 48
SWIDTH 600 0
DWIDTH 5 0
BBX 4 6 1 0
BITMAP
60
90
90
90
90
60
ENDCHAR
STARTCHAR 1
ENCODING 49
SWIDTH 600 0
DWIDTH 5 0
BBX 2 6 2 0
BITMAP
40
c0
40
40
40
40
ENDCHAR
STARTCHAR 2
ENCODING 50
SWIDTH 600 0
DWIDTH 5 0
BBX 4 6 1 0
BITMAP
60
90
10
20
40
f0
ENDCHAR
STARTCHAR 3
ENCODING 51
SWIDTH 600 0
DWIDTH 5 0
BBX 3 6 2 0
BITMAP
c0
20
c0
20
20
c0
ENDCHAR
STARTCHAR 4
ENCODING 52
SWIDTH 600 0
DWIDTH 5 0
BBX 4 6 1 0
BITMAP
20
20
60
f0
20
20
ENDCHAR
STARTCHAR 5
ENCODING 53
SWIDTH 600 0
DWIDTH 5 0
BBX 3 6 2 0
BITMAP
e0
80
c0
20
20
c0
ENDCHAR
STARTCHAR 6
ENCODING 54
SWIDTH 600 0
DWIDTH 5 0
BBX 4 6 1 0
BITMAP
70
80
e0
90
90
60
ENDCHAR
STARTCHAR 7
ENCODING 55
SWIDTH 600 0
DWIDTH 5 0
BBX 4 6 1 0
BITMAP
f0
10
20
40
40
40
ENDCHAR
STARTCHAR 8
ENCODING 56
SWIDTH 600 0
DWIDTH 5 0
BBX 4 6 1 0
BITMAP
60
90
60
90
90
60
ENDCHAR
STARTCHAR 9
ENCODING 57
SWIDTH 600 0
DWIDTH 5 0
BBX 4 6 1 0
BITMAP
60
90
90
70
10
60
ENDCHAR
STARTCHAR colon
ENCODING 58
SWIDTH 240 0
DWIDTH 2 0
BBX 1 4 1 0
BITMAP
80
00
00
80
ENDCHAR
STARTCHAR semicolon
ENCODING 59
SWIDTH 240 0
DWIDTH 2 0
BBX 2 6 0 -2
BITMAP
40
00
00
40
40
80
ENDCHAR
STARTCHAR less
ENCODING 60
SWIDTH 600 0
DWIDTH 5 0
BBX 3 5 1 0
BITMAP
20
40
80
40
20
ENDCHAR
STARTCHAR equal
ENCODING 61
SWIDTH 480 0
DWIDTH 4 0
BBX 3 3 1 1
BITMAP
e0
00
e0
ENDCHAR
STARTCHAR greater
ENCODING 62
SWIDTH 600 0
DWIDTH 5 0
BBX 3 5 2 0
BITMAP
80
40
20
40
80
ENDCHAR
STARTCHAR question
ENCODING 63
SWIDTH 600 0
DWIDTH 5 0
BBX 3 5 2 0
BITMAP
c0
20
40
00
40
ENDCHAR
STARTCHAR at
ENCODING 64
SWIDTH 1080 0
DWIDTH 9 0
BBX 8 7 1 -1
BITMAP
3e
41
99
a5
9e
80
78
ENDCHAR
STARTCHAR A
ENCODING 65
SWIDTH 720 0
DWIDTH 6 0
BBX 5 6 1 0
BITMAP
20
20
50
70
88
88
ENDCHAR
STARTCHAR B
ENCODING 66
SWIDTH 720 0
DWIDTH 6 0
BBX 4 6 2 0
BITMAP
e0
90
e0
90
90
e0
ENDCHAR
STARTCHAR C
ENCODING 67
SWIDTH 720 0
DWIDTH 6 0
BBX 5 6 1 0
BITMAP
70
88
80
80
88
70
ENDCHAR
STARTCHAR D
ENCODING 68
SWIDTH 720 0
DWIDTH 6 0
BBX 5 6 1 0
BITMAP
f0
88
88
88
88
f0
ENDCHAR
STARTCHAR E
ENCODING 69
SWIDTH 720 0
DWIDTH 6 0
BBX 4 6 2 0
BITMAP
f0
80
e0
80
80
f0
ENDCHAR
STARTCHAR F
ENCODING 70
SWIDTH 600 0
DWIDTH 5 0
BBX 4 6 2 0
BITMAP
f0
80
e0
80
80
80
ENDCHAR
STARTCHAR G
ENCODING 71
SWIDTH 720 0
DWIDTH 6 0
BBX 5 6 1 0
BITMAP
70
80
98
88
88
70
ENDCHAR
STARTCHAR H
ENCODING 72
SWIDTH 720 0
DWIDTH 6 0
BBX 5 6 1 0
BITMAP
88
88
f8
88
88
88
ENDCHAR
STARTCHAR I
ENCODING 73
SWIDTH 240 0
DWIDTH 2 0
BBX 1 6 1 0
BITMAP
80
80
80
80
80
80
ENDCHAR
STARTCHAR J
ENCODING 74
SWIDTH 480 0
DWIDTH 4 0
BBX 3 6 1 0
BITMAP
20
20
20
20
a0
40
ENDCHAR
STARTCHAR K
ENCODING 75
SWIDTH 720 0
DWIDTH 6 0
BBX 4 6 2 0
BITMAP
90
a0
c0
e0
90
90
ENDCHAR
STARTCHAR L
ENCODING 76
SWIDTH 600 0
DWIDTH 5 0
BBX 3 6 2 0
BITMAP
80
80
80
80
80
e0
ENDCHAR
STARTCHAR M
ENCODING 77
SWIDTH 840 0
DWIDTH 7 0
BBX 5 6 2 0
BITMAP
88
d8
a8
a8
a8
a8
ENDCHAR
STARTCHAR N
ENCODING 78
SWIDTH 720 0
DWIDTH 6 0
BBX 5 6 1 0
BITMAP
88
c8
a8
a8
98
88
ENDCHAR
STARTCHAR O
ENCODING 79
SWIDTH 720 0
DWIDTH 6 0
BBX 5 6 1 0
BITMAP
70
88
88
88
88
70
ENDCHAR
STARTCHAR P
ENCODING 80
SWIDTH 720 0
DWIDTH 6 0
BBX 4 6 2 0
BITMAP
e0
90
90
e0
80
80
ENDCHAR
STARTCHAR Q
ENCODING 81
SWIDTH 720 0
DWIDTH 6 0
BBX 5 8 1 -2
BITMAP
70
88
88
88
88
70
20
10
ENDCHAR
STARTCHAR R
ENCODING 82
SWIDTH 720 0
DWIDTH 6 0
BBX 4 6 2 0
BITMAP
e0
90
90
e0
90
90
ENDCHAR
STARTCHAR S
ENCODING 83
SWIDTH 720 0
DWIDTH 6 0
BBX 4 6 2 0
BITMAP
70
80
e0
10
10
e0
ENDCHAR
STARTCHAR T
ENCODING 84
SWIDTH 480 0
DWIDTH 4 0
BBX 3 6 1 0
BITMAP
e0
40
40
40
40
40
ENDCHAR
STARTCHAR U
ENCODING 85
SWIDTH 720 0
DWIDTH 6 0
BBX 5 6 1 0
BITMAP
88
88
88
88
88
70
ENDCHAR
STARTCHAR V
ENCODING 86
SWIDTH 720 0
DWIDTH 6 0
BBX 4 6 2 0
BITMAP
90
90
90
90
a0
40
ENDCHAR
STARTCHAR W
ENCODING 87
SWIDTH 840 0
DWIDTH 7 0
BBX 7 6 1 0
BITMAP
92
92
92
6c
48
48
ENDCHAR
STARTCHAR X
ENCODING 88
SWIDTH 720 0
DWIDTH 6 0
BBX 4 6 2 0
BITMAP
90
90
60
60
90
90
ENDCHAR
STARTCHAR Y
ENCODING 89
SWIDTH 720 0
DWIDTH 6 0
BBX 5 6 1 0
BITMAP
c8
48
48
30
20
20
ENDCHAR
STARTCHAR Z
ENCODING 90
SWIDTH 720 0
DWIDTH 6 0
BBX 4 6 2 0
BITMAP
f0
10
20
40
80
f0
ENDCHAR
STARTCHAR bracketleft
ENCODING 91
SWIDTH 240 0
DWIDTH 2 0
BBX 2 7 1 -1
BITMAP
c0
80
80
80
80
80
c0
ENDCHAR
STARTCHAR backslash
ENCODING 92
SWIDTH 240 0
DWIDTH 2 0
BBX 2 7 0 -1
BITMAP
80
80
80
40
40
40
40
ENDCHAR
STARTCHAR bracketright
ENCODING 93
SWIDTH 240 0
DWIDTH 2 0
BBX 2 7 0 -1
BITMAP
c0
40
40
40
40
40
c0
ENDCHAR
STARTCHAR asciicircum
ENCODING 94
SWIDTH 600 0
DWIDTH 5 0
BBX 5 3 0 2
BITMAP
20
50
88
ENDCHAR
STARTCHAR underscore
ENCODING 95
SWIDTH 600 0
DWIDTH 5 0
BBX 5 1 0 -1
BITMAP
f8
ENDCHAR
STARTCHAR grave
ENCODING 96
SWIDTH 240 0
DWIDTH 2 0
BBX 1 3 1 3
BITMAP
80
80
80
ENDCHAR
STARTCHAR a
ENCODING 97
SWIDTH 480 0
DWIDTH 4 0
BBX 4 5 1 0
BITMAP
c0
20
e0
a0
d0
ENDCHAR
STARTCHAR b
ENCODING 98
SWIDTH 600 0
DWIDTH 5 0
BBX 4 7 1 0
BITMAP
80
80
e0
90
90
90
e0
ENDCHAR
STARTCHAR c
ENCODING 99
SWIDTH 480 0
DWIDTH 4 0
BBX 3 5 1 0
BITMAP
60
80
80
80
60
ENDCHAR
STARTCHAR d
ENCODING 100
SWIDTH 600 0
DWIDTH 5 0
BBX 4 7 1 0
BITMAP
10
10
70
90
90
90
70
ENDCHAR
STARTCHAR e
ENCODING 101
SWIDTH 480 0
DWIDTH 4 0
BBX 3 5 1 0
BITMAP
40
a0
e0
80
60
ENDCHAR
STARTCHAR f
ENCODING 102
SWIDTH 360 0
DWIDTH 3 0
BBX 3 7 1 0
BITMAP
20
40
e0
40
40
40
40
ENDCHAR
STARTCHAR g
ENCODING 103
SWIDTH 600 0
DWIDTH 5 0
BBX 4 6 1 -1
BITMAP
70
90
90
70
10
60
ENDCHAR
STARTCHAR h
ENCODING 104
SWIDTH 600 0
DWIDTH 5 0
BBX 4 7 1 0
BITMAP
80
80
e0
90
90
90
90
ENDCHAR
STARTCHAR i
ENCODING 105
SWIDTH 240 0
DWIDTH 2 0
BBX 1 7 1 0
BITMAP
80
00
80
80
80
80
80
ENDCHAR
STARTCHAR j
ENCODING 106
SWIDTH 240 0
DWIDTH 2 0
BBX 2 9 0 -2
BITMAP
40
00
40
40
40
40
40
40
80
ENDCHAR
STARTCHAR k
ENCODING 107
SWIDTH 480 0
DWIDTH 4 0
BBX 3 7 1 0
BITMAP
80
80
a0
c0
c0
a0
a0
ENDCHAR
STARTCHAR l
ENCODING 108
SWIDTH 240 0
DWIDTH 2 0
BBX 1 7 1 0
BITMAP
80
80
80
80
80
80
80
ENDCHAR
STARTCHAR m
ENCODING 109
SWIDTH 720 0
DWIDTH 6 0
BBX 5 5 1 0
BITMAP
f0
a8
a8
a8
a8
ENDCHAR
STARTCHAR n
ENCODING 110
SWIDTH 600 0
DWIDTH 5 0
BBX 4 5 1 0
BITMAP
e0
90
90
90
90
ENDCHAR
STARTCHAR o
ENCODING 111
SWIDTH 600 0
DWIDTH 5 0
BBX 4 5 1 0
BITMAP
60
90
90
90
60
ENDCHAR
STARTCHAR p
ENCODING 112
SWIDTH 600 0
DWIDTH 5 0
BBX 4 6 1 -1
BITMAP
e0
90
90
90
e0
80
ENDCHAR
STARTCHAR q
ENCODING 113
SWIDTH 600 0
DWIDTH 5 0
BBX 4 6 1 -1
BITMAP
70
90
90
90
70
10
ENDCHAR
STARTCHAR r
ENCODING 114
SWIDTH 360 0
DWIDTH 3 0
BBX 3 5 1 0
BITMAP
a0
c0
80
80
80
ENDCHAR
STARTCHAR s
ENCODING 115
SWIDTH 480 0
DWIDTH 4 0
BBX 3 5 1 0
BITMAP
60
80
60
20
c0
ENDCHAR
STARTCHAR t
ENCODING 116
SWIDTH 360 0
DWIDTH 3 0
BBX 3 7 1 0
BITMAP
40
40
e0
40
40
40
40
ENDCHAR
STARTCHAR u
ENCODING 117
SWIDTH 480 0
DWIDTH 4 0
BBX 3 5 1 0
BITMAP
a0
a0
a0
a0
60
ENDCHAR
STARTCHAR v
ENCODING 118
SWIDTH 600 0
DWIDTH 5 0
BBX 4 5 1 0
BITMAP
90
90
90
a0
40
ENDCHAR
STARTCHAR w
ENCODING 119
SWIDTH 720 0
DWIDTH 6 0
BBX 5 5 1 0
BITMAP
a8
a8
a8
50
50
ENDCHAR
STARTCHAR x
ENCODING 120
SWIDTH 600 0
DWIDTH 5 0
BBX 4 5 1 0
BITMAP
90
90
60
90
90
ENDCHAR
STARTCHAR y
ENCODING 121
SWIDTH 480 0
DWIDTH 4 0
BBX 4 6 1 -1
BITMAP
90
90
90
60
40
80
ENDCHAR
STARTCHAR z
ENCODING 122
SWIDTH 480 0
DWIDTH 4 0
BBX 3 5 1 0
BITMAP
e0
20
40
80
e0
ENDCHAR
STARTCHAR braceleft
ENCODING 123
SWIDTH 240 0
DWIDTH 2 0
BBX 3 7 0 -1
BITMAP
20
40
40
c0
40
40
20
ENDCHAR
STARTCHAR bar
ENCODING 124
SWIDTH 240 0
DWIDTH 2 0
BBX 1 7 1 -1
BITMAP
80
80
80
80
80
80
80
ENDCHAR
STARTCHAR braceright
ENCODING 125
SWIDTH 240 0
DWIDTH 2 0
BBX 3 7 0 -1
BITMAP
80
40
40
60
40
40
80
ENDCHAR
STARTCHAR asciitilde
ENCODING 126
SWIDTH 720 0
DWIDTH 6 0
BBX 5 2 1 2
BITMAP
48
b0
ENDCHAR
STARTCHAR nobreakspace
ENCODING 160
SWIDTH 240 0
DWIDTH 2 0
BBX 1 1 0 0
BITMAP
00
ENDCHAR
STARTCHAR exclamdown
ENCODING 161
SWIDTH 240 0
DWIDTH 2 0
BBX 1 7 1 -2
BITMAP
00
00
00
00
00
00
00
ENDCHAR
STARTCHAR cent
ENCODING 162
SWIDTH 600 0
DWIDTH 5 0
BBX 3 7 1 -1
BITMAP
00
00
00
00
00
00
00
ENDCHAR
STARTCHAR sterling
ENCODING 163
SWIDTH 600 0
DWIDTH 5 0
BBX 4 6 1 0
BITMAP
00
00
00
00
00
00
ENDCHAR
STARTCHAR currency
ENCODING 164
SWIDTH 480 0
DWIDTH 4 0
BBX 5 5 0 0
BITMAP
00
00
00
00
00
ENDCHAR
STARTCHAR yen
ENCODING 165
SWIDTH 720 0
DWIDTH 6 0
BBX 5 5 1 0
BITMAP
00
00
00
00
00
ENDCHAR
STARTCHAR brokenbar
ENCODING 166
SWIDTH 240 0
DWIDTH 2 0
BBX 1 7 1 -1
BITMAP
00
00
00
80
00
80
80
ENDCHAR
STARTCHAR section
ENCODING 167
SWIDTH 600 0
DWIDTH 5 0
BBX 4 8 1 -2
BITMAP
80
80
80
40
40
a0
80
a0
ENDCHAR
STARTCHAR diaeresis
ENCODING 168
SWIDTH 240 0
DWIDTH 2 0
BBX 4 1 0 5
BITMAP
40
ENDCHAR
STARTCHAR copyright
ENCODING 169
SWIDTH 840 0
DWIDTH 7 0
BBX 6 7 1 -1
BITMAP
40
30
40
e0
40
40
f0
ENDCHAR
STARTCHAR ordfeminine
ENCODING 170
SWIDTH 360 0
DWIDTH 3 0
BBX 3 5 0 1
BITMAP
80
60
40
60
80
ENDCHAR
STARTCHAR guillemotleft
ENCODING 171
SWIDTH 600 0
DWIDTH 5 0
BBX 4 3 1 1
BITMAP
80
50
f0
ENDCHAR
STARTCHAR notsign
ENCODING 172
SWIDTH 720 0
DWIDTH 6 0
BBX 4 3 1 1
BITMAP
20
20
80
ENDCHAR
STARTCHAR hyphen
ENCODING 173
SWIDTH 360 0
DWIDTH 3 0
BBX 2 1 0 2
BITMAP
80
ENDCHAR
STARTCHAR registered
ENCODING 174
SWIDTH 840 0
DWIDTH 7 0
BBX 6 7 1 -1
BITMAP
80
00
80
80
80
70
80
ENDCHAR
STARTCHAR macron
ENCODING 175
SWIDTH 240 0
DWIDTH 2 0
BBX 3 1 0 5
BITMAP
60
ENDCHAR
STARTCHAR degree
ENCODING 176
SWIDTH 360 0
DWIDTH 3 0
BBX 3 3 1 3
BITMAP
80
60
20
ENDCHAR
STARTCHAR plusminus
ENCODING 177
SWIDTH 600 0
DWIDTH 5 0
BBX 4 5 1 0
BITMAP
10
e0
90
70
80
ENDCHAR
STARTCHAR twosuperior
ENCODING 178
SWIDTH 240 0
DWIDTH 2 0
BBX 2 4 1 2
BITMAP
80
80
80
80
ENDCHAR
STARTCHAR threesuperior
ENCODING 179
SWIDTH 240 0
DWIDTH 2 0
BBX 3 4 0 2
BITMAP
60
c0
20
e0
ENDCHAR
STARTCHAR acute
ENCODING 180
SWIDTH 240 0
DWIDTH 2 0
BBX 2 2 0 4
BITMAP
00
c0
ENDCHAR
STARTCHAR mu
ENCODING 181
SWIDTH 480 0
DWIDTH 4 0
BBX 3 6 1 -2
BITMAP
40
a0
40
e0
00
00
ENDCHAR
STARTCHAR paragraph
ENCODING 182
SWIDTH 600 0
DWIDTH 5 0
BBX 5 8 0 -2
BITMAP
c0
78
80
b0
b0
a8
80
78
ENDCHAR
STARTCHAR periodcentered
ENCODING 183
SWIDTH 240 0
DWIDTH 2 0
BBX 1 2 1 1
BITMAP
80
00
ENDCHAR
STARTCHAR cedilla
ENCODING 184
SWIDTH 240 0
DWIDTH 2 0
BBX 2 2 0 -2
BITMAP
80
40
ENDCHAR
STARTCHAR onesuperior
ENCODING 185
SWIDTH 240 0
DWIDTH 2 0
BBX 2 4 0 2
BITMAP
00
c0
00
00
ENDCHAR
STARTCHAR masculine
ENCODING 186
SWIDTH 360 0
DWIDTH 3 0
BBX 3 5 0 1
BITMAP
e0
80
40
80
c0
ENDCHAR
STARTCHAR guillemotright
ENCODING 187
SWIDTH 600 0
DWIDTH 5 0
BBX 4 3 1 1
BITMAP
e0
60
20
ENDCHAR
STARTCHAR onequarter
ENCODING 188
SWIDTH 840 0
DWIDTH 7 0
BBX 7 7 0 -1
BITMAP
c0
40
80
a0
a0
a0
e0
ENDCHAR
STARTCHAR onehalf
ENCODING 189
SWIDTH 840 0
DWIDTH 7 0
BBX 7 7 0 -1
BITMAP
80
80
78
d0
d0
d0
50
ENDCHAR
STARTCHAR threequarters
ENCODING 190
SWIDTH 840 0
DWIDTH 7 0
BBX 7 7 0 -1
BITMAP
50
50
50
80
80
40
80
ENDCHAR
STARTCHAR questiondown
ENCODING 191
SWIDTH 600 0
DWIDTH 5 0
BBX 4 6 1 -1
BITMAP
40
c0
40
40
e0
a0
ENDCHAR
STARTCHAR Agrave
ENCODING 192
SWIDTH 720 0
DWIDTH 6 0
BBX 5 9 1 0
BITMAP
e0
00
e0
a0
50
a0
40
c0
48
ENDCHAR
STARTCHAR Aacute
ENCODING 193
SWIDTH 720 0
DWIDTH 6 0
BBX 5 9 1 0
BITMAP
50
28
58
00
40
c0
48
58
20
ENDCHAR
STARTCHAR Acircumflex
ENCODING 194
SWIDTH 720 0
DWIDTH 6 0
BBX 5 9 1 0
BITMAP
40
08
e0
60
28
d0
28
58
00
ENDCHAR
STARTCHAR Atilde
ENCODING 195
SWIDTH 720 0
DWIDTH 6 0
BBX 5 9 1 0
BITMAP
20
00
20
40
90
60
40
20
00
ENDCHAR
STARTCHAR Adiaeresis
ENCODING 196
SWIDTH 720 0
DWIDTH 6 0
BBX 5 8 1 0
BITMAP
20
20
50
70
88
88
10
20
ENDCHAR
STARTCHAR Aring
ENCODING 197
SWIDTH 720 0
DWIDTH 6 0
BBX 5 9 1 0
BITMAP
00
20
20
50
70
88
88
20
50
ENDCHAR
STARTCHAR AE
ENCODING 198
SWIDTH 960 0
DWIDTH 8 0
BBX 7 6 1 0
BITMAP
00
20
20
50
70
88
ENDCHAR
STARTCHAR Ccedilla
ENCODING 199
SWIDTH 720 0
DWIDTH 6 0
BBX 5 8 1 -2
BITMAP
88
28
50
00
20
20
50
70
ENDCHAR
STARTCHAR Egrave
ENCODING 200
SWIDTH 720 0
DWIDTH 6 0
BBX 4 9 2 0
BITMAP
80
80
50
00
20
20
50
70
80
ENDCHAR
STARTCHAR Eacute
ENCODING 201
SWIDTH 720 0
DWIDTH 6 0
BBX 4 9 2 0
BITMAP
80
20
50
20
20
20
50
70
80
ENDCHAR
STARTCHAR Ecircumflex
ENCODING 202
SWIDTH 720 0
DWIDTH 6 0
BBX 4 9 2 0
BITMAP
80
30
30
50
70
90
90
70
80
ENDCHAR
STARTCHAR Ediaeresis
ENCODING 203
SWIDTH 720 0
DWIDTH 6 0
BBX 4 8 2 0
BITMAP
80
80
80
70
40
80
40
20
ENDCHAR
STARTCHAR Igrave
ENCODING 204
SWIDTH 240 0
DWIDTH 2 0
BBX 2 9 0 0
BITMAP
00
c0
80
c0
80
80
c0
00
40
ENDCHAR
STARTCHAR Iacute
ENCODING 205
SWIDTH 240 0
DWIDTH 2 0
BBX 2 9 1 0
BITMAP
00
c0
80
c0
80
80
c0
40
80
ENDCHAR
STARTCHAR Icircumflex
ENCODING 206
SWIDTH 240 0
DWIDTH 2 0
BBX 3 9 0 0
BITMAP
00
e0
80
e0
80
80
e0
a0
00
ENDCHAR
STARTCHAR Idiaeresis
ENCODING 207
SWIDTH 240 0
DWIDTH 2 0
BBX 3 8 0 0
BITMAP
e0
80
e0
80
80
e0
80
40
ENDCHAR
STARTCHAR ETH
ENCODING 208
SWIDTH 720 0
DWIDTH 6 0
BBX 5 6 1 0
BITMAP
00
40
40
40
40
40
ENDCHAR
STARTCHAR Ntilde
ENCODING 209
SWIDTH 720 0
DWIDTH 6 0
BBX 5 9 1 0
BITMAP
40
40
80
00
80
80
80
80
80
ENDCHAR
STARTCHAR Ograve
ENCODING 210
SWIDTH 720 0
DWIDTH 6 0
BBX 5 9 1 0
BITMAP
80
40
a0
00
40
40
40
40
40
ENDCHAR
STARTCHAR Oacute
ENCODING 211
SWIDTH 720 0
DWIDTH 6 0
BBX 5 9 1 0
BITMAP
40
a0
00
40
40
40
40
40
40
ENDCHAR
STARTCHAR Ocircumflex
ENCODING 212
SWIDTH 720 0
DWIDTH 6 0
BBX 5 9 1 0
BITMAP
70
48
e8
48
48
70
28
50
00
ENDCHAR
STARTCHAR Otilde
ENCODING 213
SWIDTH 720 0
DWIDTH 6 0
BBX 5 9 1 0
BITMAP
88
c8
a8
a8
98
88
40
20
00
ENDCHAR
STARTCHAR Odiaeresis
ENCODING 214
SWIDTH 720 0
DWIDTH 6 0
BBX 5 8 1 0
BITMAP
70
88
88
88
88
70
10
20
ENDCHAR
STARTCHAR multiply
ENCODING 215
SWIDTH 600 0
DWIDTH 5 0
BBX 4 4 1 0
BITMAP
00
70
80
80
ENDCHAR
STARTCHAR Ooblique
ENCODING 216
SWIDTH 720 0
DWIDTH 6 0
BBX 5 8 1 -1
BITMAP
88
88
70
20
50
00
70
88
ENDCHAR
STARTCHAR Ugrave
ENCODING 217
SWIDTH 720 0
DWIDTH 6 0
BBX 5 9 1 0
BITMAP
88
88
88
70
28
50
00
70
88
ENDCHAR
STARTCHAR Uacute
ENCODING 218
SWIDTH 720 0
DWIDTH 6 0
BBX 5 9 1 0
BITMAP
88
88
88
70
50
00
70
88
88
ENDCHAR
STARTCHAR Ucircumflex
ENCODING 219
SWIDTH 720 0
DWIDTH 6 0
BBX 5 9 1 0
BITMAP
88
88
70
90
60
60
90
08
78
ENDCHAR
STARTCHAR Udiaeresis
ENCODING 220
SWIDTH 720 0
DWIDTH 6 0
BBX 5 8 1 0
BITMAP
88
98
a8
c8
f0
80
40
20
ENDCHAR
STARTCHAR Yacute
ENCODING 221
SWIDTH 720 0
DWIDTH 6 0
BBX 5 9 1 0
BITMAP
00
88
88
88
88
88
70
10
20
ENDCHAR
STARTCHAR THORN
ENCODING 222
SWIDTH 720 0
DWIDTH 6 0
BBX 5 6 1 0
BITMAP
00
88
88
88
88
88
ENDCHAR
STARTCHAR ssharp
ENCODING 223
SWIDTH 720 0
DWIDTH 6 0
BBX 4 7 2 -1
BITMAP
70
20
50
00
80
80
80
ENDCHAR
STARTCHAR agrave
ENCODING 224
SWIDTH 480 0
DWIDTH 4 0
BBX 4 8 1 0
BITMAP
80
80
70
50
00
80
80
80
ENDCHAR
STARTCHAR aacute
ENCODING 225
SWIDTH 480 0
DWIDTH 4 0
BBX 4 8 1 0
BITMAP
80
80
70
00
10
00
c0
40
ENDCHAR
STARTCHAR acircumflex
ENCODING 226
SWIDTH 480 0
DWIDTH 4 0
BBX 4 8 1 0
BITMAP
40
30
20
20
80
f0
80
80
ENDCHAR
STARTCHAR atilde
ENCODING 227
SWIDTH 480 0
DWIDTH 4 0
BBX 5 8 0 0
BITMAP
f0
80
60
90
a0
90
90
a0
ENDCHAR
STARTCHAR adiaeresis
ENCODING 228
SWIDTH 480 0
DWIDTH 4 0
BBX 4 7 1 0
BITMAP
80
80
40
00
c0
20
e0
ENDCHAR
STARTCHAR aring
ENCODING 229
SWIDTH 480 0
DWIDTH 4 0
BBX 4 8 1 0
BITMAP
a0
d0
20
40
00
c0
20
e0
ENDCHAR
STARTCHAR ae
ENCODING 230
SWIDTH 720 0
DWIDTH 6 0
BBX 5 5 1 0
BITMAP
a0
d0
40
a0
00
ENDCHAR
STARTCHAR ccedilla
ENCODING 231
SWIDTH 480 0
DWIDTH 4 0
BBX 3 7 1 -2
BITMAP
c0
20
e0
a0
c0
60
a0
ENDCHAR
STARTCHAR egrave
ENCODING 232
SWIDTH 480 0
DWIDTH 4 0
BBX 3 8 1 0
BITMAP
00
60
00
60
40
60
a0
00
ENDCHAR
STARTCHAR eacute
ENCODING 233
SWIDTH 480 0
DWIDTH 4 0
BBX 3 8 1 0
BITMAP
c0
20
e0
a0
c0
40
a0
40
ENDCHAR
STARTCHAR ecircumflex
ENCODING 234
SWIDTH 480 0
DWIDTH 4 0
BBX 3 8 1 0
BITMAP
c0
20
e0
a0
c0
c0
20
e0
ENDCHAR
STARTCHAR ediaeresis
ENCODING 235
SWIDTH 480 0
DWIDTH 4 0
BBX 3 7 1 0
BITMAP
a0
c0
60
80
80
80
60
ENDCHAR
STARTCHAR igrave
ENCODING 236
SWIDTH 240 0
DWIDTH 2 0
BBX 2 8 0 0
BITMAP
40
80
40
00
00
40
80
c0
ENDCHAR
STARTCHAR iacute
ENCODING 237
SWIDTH 240 0
DWIDTH 2 0
BBX 2 8 1 0
BITMAP
80
40
00
40
00
40
80
c0
ENDCHAR
STARTCHAR icircumflex
ENCODING 238
SWIDTH 240 0
DWIDTH 2 0
BBX 3 8 0 0
BITMAP
80
60
40
a0
00
40
a0
e0
ENDCHAR
STARTCHAR idiaeresis
ENCODING 239
SWIDTH 240 0
DWIDTH 2 0
BBX 3 7 0 0
BITMAP
80
60
a0
00
40
a0
e0
ENDCHAR
STARTCHAR eth
ENCODING 240
SWIDTH 600 0
DWIDTH 5 0
BBX 4 8 1 0
BITMAP
80
60
80
40
00
40
40
40
ENDCHAR
STARTCHAR ntilde
ENCODING 241
SWIDTH 600 0
DWIDTH 5 0
BBX 4 8 1 0
BITMAP
40
40
40
80
00
80
80
80
ENDCHAR
STARTCHAR ograve
ENCODING 242
SWIDTH 600 0
DWIDTH 5 0
BBX 4 8 1 0
BITMAP
80
80
40
a0
00
40
40
40
ENDCHAR
STARTCHAR oacute
ENCODING 243
SWIDTH 600 0
DWIDTH 5 0
BBX 4 8 1 0
BITMAP
40
40
a0
00
40
40
40
40
ENDCHAR
STARTCHAR ocircumflex
ENCODING 244
SWIDTH 600 0
DWIDTH 5 0
BBX 4 8 1 0
BITMAP
40
90
60
a0
70
90
90
90
ENDCHAR
STARTCHAR otilde
ENCODING 245
SWIDTH 600 0
DWIDTH 5 0
BBX 4 8 1 0
BITMAP
60
50
a0
00
e0
90
90
90
ENDCHAR
STARTCHAR odiaeresis
ENCODING 246
SWIDTH 600 0
DWIDTH 5 0
BBX 4 7 1 0
BITMAP
90
40
20
00
60
90
90
ENDCHAR
STARTCHAR division
ENCODING 247
SWIDTH 600 0
DWIDTH 5 0
BBX 4 5 1 0
BITMAP
90
60
10
20
00
ENDCHAR
STARTCHAR oslash
ENCODING 248
SWIDTH 600 0
DWIDTH 5 0
BBX 7 7 0 -1
BITMAP
60
90
90
90
60
40
a0
ENDCHAR
STARTCHAR ugrave
ENCODING 249
SWIDTH 480 0
DWIDTH 4 0
BBX 3 8 1 0
BITMAP
00
60
80
80
80
60
40
a0
ENDCHAR
STARTCHAR uacute
ENCODING 250
SWIDTH 480 0
DWIDTH 4 0
BBX 3 8 1 0
BITMAP
00
60
80
80
80
60
80
00
ENDCHAR
STARTCHAR ucircumflex
ENCODING 251
SWIDTH 480 0
DWIDTH 4 0
BBX 3 8 1 0
BITMAP
60
80
80
80
60
20
00
e0
ENDCHAR
STARTCHAR udiaeresis
ENCODING 252
SWIDTH 480 0
DWIDTH 4 0
BBX 3 7 1 0
BITMAP
00
20
00
20
40
40
60
ENDCHAR
STARTCHAR yacute
ENCODING 253
SWIDTH 480 0
DWIDTH 4 0
BBX 4 9 1 -1
BITMAP
70
80
80
40
00
a0
a0
a0
a0
ENDCHAR
STARTCHAR thorn
ENCODING 254
SWIDTH 600 0
DWIDTH 5 0
BBX 4 7 1 -1
BITMAP
60
20
40
00
a0
a0
a0
ENDCHAR
STARTCHAR ydiaeresis
ENCODING 255
SWIDTH 480 0
DWIDTH 4 0
BBX 4 8 1 -1
BITMAP
a0
60
40
a0
00
a0
a0
a0
ENDCHAR
ENDFONT
